<svg width="24" height="24" viewBox="0 0 24 24" fill="none" xmlns="http://www.w3.org/2000/svg">
<path d="M20.2924 13.8961L17.3627 11.2489L20.2924 8.60167C20.5692 8.35158 20.5692 7.89062 20.2924 7.64053L16.8309 4.51272C16.4551 4.17318 15.8846 4.46291 15.8846 4.9933V9.73867L13.9849 7.67876C13.7596 7.43445 13.3943 7.43445 13.169 7.67876C12.9437 7.92307 12.9437 8.31914 13.169 8.56344L15.6456 11.2489L13.169 13.9344C12.9437 14.1787 12.9437 14.5747 13.169 14.819C13.3943 15.0634 13.7596 15.0634 13.9849 14.819L15.8846 12.7591V17.5045C15.8846 18.0349 16.4551 18.3246 16.8309 17.9851L20.2924 14.8573C20.5692 14.6072 20.5692 14.1462 20.2924 13.8961ZM17.0385 6.32887L19.0219 8.12106L17.0385 9.91326V6.32887ZM17.0385 16.1689V12.5845L19.0219 14.3767L17.0385 16.1689Z" fill="white"/>
<path d="M10.966 17.6407C11.2478 17.6407 11.3856 17.4084 11.3856 17.122V5.07143C11.3856 4.78504 11.2478 4.55684 10.965 4.55684C10.7734 4.55684 10.6096 4.66365 10.4903 4.80127L7.17306 8.33668C7.1029 8.42102 7.00436 8.45213 6.87848 8.45213H4.55889C3.97996 8.45213 3.5 8.97235 3.5 9.61182V12.6825C3.5 13.3152 3.97996 13.8349 4.55889 13.8349H6.87848C7.00436 13.8349 7.1029 13.8807 7.17306 13.9576L10.4903 17.3922C10.6138 17.527 10.7745 17.6407 10.966 17.6407Z" fill="white"/>
</svg>
